<svg width="449" height="278" viewBox="0 0 449 278" fill="none" xmlns="http://www.w3.org/2000/svg">
<g clip-path="url(#clip0_426_2173)">
<path d="M362.34 15.9571L360.84 16.3589C348.151 19.7516 338.201 29.6748 335.354 42.3593C334.983 43.9922 334.735 45.6508 334.613 47.3208C334.247 53.3936 335.388 59.4627 337.934 64.9888C340.481 70.515 344.355 75.3269 349.211 78.997C354.955 83.2826 362.206 86.1205 366.004 92.179C370.938 100.055 368.206 110.189 365.366 118.964C362.525 127.739 359.794 137.892 364.766 145.749C367.881 150.672 373.504 153.586 379.21 154.926C394.312 158.471 410.626 151.992 421.081 140.755C431.536 129.518 436.655 114.187 437.957 98.9262C439.783 77.5558 434.204 55.0948 420.296 38.5201C406.388 21.9454 383.684 12.1945 362.34 15.9571Z" fill="url(#paint0_linear_426_2173)"/>
<path d="M162.278 71.2288C179.752 71.2288 193.917 57.0754 193.917 39.6163C193.917 22.1573 179.752 8.00391 162.278 8.00391C144.803 8.00391 130.638 22.1573 130.638 39.6163C130.638 57.0754 144.803 71.2288 162.278 71.2288Z" fill="url(#paint1_linear_426_2173)"/>
<path d="M107.807 196.275C99.8281 197.366 90.49 202.085 84.6944 196.498C81.1647 193.086 81.2158 187.57 80.2265 182.749C77.6733 170.115 65.4311 160.147 52.5251 160.16C39.619 160.173 26.1513 171.627 23.5982 184.235C19.4238 198.737 22.6791 214.846 30.8044 227.549C38.9297 240.253 51.5677 249.723 65.4822 255.578C79.7095 261.56 96.075 263.9 110.634 258.766C125.193 253.633 137.219 239.909 137.321 224.482C137.423 209.055 123.1 194.177 107.807 196.275Z" fill="url(#paint2_linear_426_2173)"/>
<path d="M366.623 247.125C389.191 247.125 407.486 228.886 407.486 206.387C407.486 183.888 389.191 165.648 366.623 165.648C344.055 165.648 325.76 183.888 325.76 206.387C325.76 228.886 344.055 247.125 366.623 247.125Z" fill="#A8A8A8" fill-opacity="0.2"/>
<path d="M407.486 206.388C407.486 206.388 407.486 206.165 407.454 205.75C407.422 205.336 407.454 204.66 407.358 203.837C406.931 197.405 404.975 191.168 401.652 185.643C398.958 181.175 395.438 177.26 391.28 174.106C386.234 170.283 380.363 167.69 374.136 166.536C370.678 165.893 367.151 165.7 363.643 165.962C361.811 166.094 359.99 166.348 358.192 166.721C356.347 167.12 354.531 167.637 352.754 168.271C345.189 171.018 338.605 175.937 333.828 182.409C332.584 184.097 331.474 185.879 330.509 187.741C329.514 189.623 328.679 191.586 328.014 193.608C325.231 201.932 325.231 210.934 328.014 219.258C328.68 221.281 329.512 223.245 330.503 225.131C335.225 234.17 343.163 241.116 352.754 244.601C354.531 245.235 356.347 245.752 358.192 246.151C359.992 246.525 361.815 246.778 363.649 246.91C367.155 247.172 370.68 246.979 374.136 246.336C380.364 245.18 386.237 242.588 391.287 238.766C395.443 235.61 398.963 231.696 401.659 227.229C404.976 221.702 406.93 215.465 407.358 209.035C407.441 208.186 407.422 207.536 407.454 207.121C407.486 206.707 407.486 206.484 407.486 206.484C407.486 206.484 407.486 207.377 407.429 209.086C407.285 211.542 406.913 213.981 406.318 216.369C405.365 220.201 403.86 223.874 401.85 227.274C399.156 231.774 395.629 235.722 391.459 238.906C386.39 242.764 380.488 245.385 374.225 246.559C370.744 247.209 367.194 247.408 363.662 247.152C361.817 247.02 359.984 246.766 358.173 246.393C356.313 245.996 354.482 245.478 352.69 244.843C345.041 242.091 338.381 237.133 333.554 230.596C332.295 228.899 331.174 227.103 330.203 225.227C329.2 223.328 328.359 221.348 327.688 219.309C324.88 210.919 324.88 201.844 327.688 193.455C328.359 191.415 329.2 189.435 330.203 187.537C334.955 178.421 342.963 171.424 352.639 167.933C354.431 167.296 356.262 166.776 358.121 166.377C359.932 166.003 361.766 165.75 363.611 165.618C367.143 165.362 370.693 165.561 374.174 166.211C377.424 166.811 380.586 167.812 383.589 169.189C386.364 170.45 388.989 172.018 391.414 173.864C395.582 177.048 399.107 180.996 401.799 185.496C403.811 188.894 405.317 192.568 406.267 196.401C406.87 198.82 407.244 201.291 407.384 203.78C407.512 205.489 407.486 206.388 407.486 206.388Z" fill="#4D7298"/>
<path d="M410.69 206.388C410.69 206.388 410.69 206.146 410.652 205.674C410.614 205.202 410.652 204.494 410.556 203.582C410.138 197.301 408.376 191.182 405.388 185.64C402.401 180.097 398.258 175.259 393.24 171.453C390.639 169.469 387.821 167.787 384.84 166.441C381.618 164.96 378.224 163.889 374.736 163.252C369.033 162.198 363.179 162.265 357.502 163.45C355.511 163.882 353.549 164.442 351.63 165.127C343.458 168.102 336.351 173.427 331.205 180.432C329.864 182.25 328.667 184.169 327.624 186.172C326.55 188.217 325.653 190.351 324.943 192.549C321.952 201.537 321.952 211.252 324.943 220.24C325.655 222.438 326.554 224.572 327.631 226.617C328.671 228.621 329.869 230.541 331.211 232.357C336.358 239.362 343.465 244.687 351.636 247.662C353.555 248.35 355.516 248.91 357.509 249.339C363.186 250.523 369.039 250.592 374.742 249.544C381.468 248.291 387.807 245.482 393.252 241.342C397.728 237.919 401.512 233.677 404.403 228.843C406.584 225.192 408.227 221.247 409.28 217.128C409.943 214.527 410.371 211.872 410.556 209.194C410.639 208.276 410.626 207.568 410.652 207.102C410.677 206.637 410.69 206.388 410.69 206.388C410.69 206.388 410.69 207.358 410.626 209.194C410.363 213.83 409.352 218.394 407.633 222.708C406.786 224.865 405.763 226.949 404.575 228.938C401.677 233.799 397.88 238.065 393.386 241.508C387.92 245.686 381.55 248.525 374.787 249.799C369.054 250.866 363.167 250.805 357.458 249.62C355.453 249.189 353.478 248.626 351.547 247.936C343.325 244.941 336.176 239.58 331.001 232.529C329.649 230.691 328.443 228.751 327.394 226.725C326.315 224.679 325.41 222.546 324.688 220.348C321.676 211.289 321.676 201.5 324.688 192.441C325.413 190.243 326.321 188.11 327.401 186.064C328.449 184.04 329.655 182.101 331.007 180.267C336.19 173.216 343.349 167.859 351.579 164.872C353.51 164.182 355.484 163.619 357.489 163.188C359.445 162.783 361.426 162.51 363.419 162.372C374.176 161.577 384.85 164.754 393.418 171.3C397.917 174.74 401.717 179.006 404.614 183.87C408.192 189.878 410.267 196.659 410.665 203.64C410.716 205.425 410.69 206.388 410.69 206.388Z" fill="#4D7298"/>
<path d="M414.974 193.04C415.748 188.295 412.526 183.821 407.777 183.048C403.028 182.274 398.55 185.493 397.776 190.238C397.002 194.983 400.224 199.457 404.973 200.231C409.722 201.004 414.2 197.785 414.974 193.04Z" fill="#4D7298"/>
<path d="M402.501 191.579L403.733 190.342L406.107 192.459L410.007 188.416L411.15 189.647L405.935 194.832L402.501 191.579Z" fill="white"/>
<path d="M281.362 78.982C302.276 78.982 319.231 62.0419 319.231 41.1453C319.231 20.2487 302.276 3.30859 281.362 3.30859C260.447 3.30859 243.492 20.2487 243.492 41.1453C243.492 62.0419 260.447 78.982 281.362 78.982Z" fill="#A8A8A8" fill-opacity="0.2"/>
<path d="M243.492 41.146C243.492 41.146 243.492 40.3106 243.544 38.729C243.673 36.4187 244.019 34.1255 244.578 31.8798C245.462 28.322 246.862 24.9123 248.733 21.759C251.222 17.5666 254.489 13.887 258.358 10.9175C260.602 9.19795 263.035 7.73881 265.609 6.56817C268.395 5.28421 271.33 4.35231 274.347 3.79403C277.576 3.19143 280.87 3.01348 284.145 3.26471C285.86 3.38349 287.566 3.61786 289.251 3.96621C290.983 4.33466 292.689 4.81828 294.357 5.41387C301.696 8.07749 308.037 12.9338 312.518 19.3232C316.999 25.7126 319.402 33.3252 319.402 41.1269C319.402 48.9286 316.999 56.5413 312.518 62.9306C308.037 69.32 301.696 74.1763 294.357 76.84C292.689 77.4327 290.983 77.9141 289.251 78.2812C287.567 78.6348 285.861 78.8713 284.145 78.9891C280.866 79.2319 277.57 79.0453 274.341 78.4343C268.538 77.3391 263.074 74.9017 258.384 71.3172C254.519 68.3556 251.252 64.6874 248.758 60.5076C246.888 57.351 245.486 53.9397 244.597 50.3804C244.04 48.1448 243.692 45.8627 243.556 43.5631C243.48 41.9751 243.505 41.146 243.505 41.146C243.505 41.146 243.505 41.3501 243.537 41.7838C243.569 42.2174 243.537 42.7914 243.626 43.5822C243.987 48.9781 245.502 54.234 248.07 58.9945C250.638 63.7551 254.198 67.9095 258.511 71.1769C263.189 74.7211 268.632 77.1234 274.404 78.192C277.612 78.791 280.884 78.9689 284.138 78.7213C285.838 78.6036 287.527 78.367 289.193 78.0134C290.904 77.6473 292.589 77.1679 294.236 76.5785C301.515 73.9335 307.803 69.1145 312.247 62.7756C316.691 56.4367 319.074 48.8851 319.074 41.146C319.074 33.407 316.691 25.8554 312.247 19.5165C307.803 13.1776 301.515 8.35858 294.236 5.7136C292.588 5.12421 290.904 4.64277 289.193 4.27233C287.526 3.92491 285.837 3.68843 284.138 3.56444C280.886 3.31868 277.616 3.49877 274.411 4.10014C271.415 4.64644 268.499 5.56332 265.73 6.82964C263.168 7.98674 260.747 9.4309 258.511 11.1343C254.195 14.4004 250.633 18.5553 248.065 23.3175C245.496 28.0796 243.983 33.3377 243.626 38.7354C243.55 39.5198 243.563 40.1257 243.537 40.5338C243.512 40.942 243.492 41.146 243.492 41.146Z" fill="#CA2E55"/>
<path d="M239.465 41.5287C239.465 41.5287 239.465 40.6167 239.522 38.8885C239.667 36.3592 240.045 33.8486 240.652 31.3887C242.935 22.2605 248.259 14.1798 255.747 8.47499C260.896 4.5598 266.889 1.90195 273.249 0.713775C278.644 -0.292743 284.185 -0.234247 289.557 0.885963C291.446 1.2891 293.305 1.81747 295.123 2.46754C302.868 5.27846 309.605 10.3207 314.482 16.9568C315.755 18.6782 316.891 20.4971 317.878 22.3967C318.899 24.325 319.753 26.337 320.431 28.4105C323.269 36.9348 323.269 46.1481 320.431 54.6724C319.75 56.7451 318.896 58.7568 317.878 60.6862C313.069 69.9583 304.943 77.0822 295.117 80.6409C293.296 81.2889 291.434 81.8172 289.544 82.2224C284.171 83.3343 278.632 83.3907 273.236 82.3883C266.872 81.1949 260.878 78.5256 255.735 74.5952C248.25 68.8909 242.929 60.8128 240.646 51.6878C240.04 49.2278 239.661 46.7173 239.516 44.188C239.433 42.4534 239.459 41.5414 239.459 41.5414C239.459 41.5414 239.459 41.771 239.49 42.2174C239.522 42.6639 239.49 43.3207 239.586 44.1817C239.98 50.0917 241.639 55.8484 244.45 61.0632C247.261 66.278 251.159 70.8295 255.882 74.4102C261.004 78.2986 266.964 80.9387 273.287 82.1204C276.8 82.7774 280.383 82.9746 283.947 82.7071C285.809 82.575 287.66 82.315 289.487 81.9291C291.36 81.5259 293.204 80.9997 295.008 80.3539C302.693 77.5551 309.376 72.5442 314.214 65.9539C315.478 64.2404 316.605 62.43 317.584 60.5395C318.602 58.6251 319.456 56.6283 320.137 54.5703C322.95 46.1117 322.95 36.9712 320.137 28.5126C319.454 26.4552 318.6 24.4585 317.584 22.5434C312.803 13.3521 304.748 6.28478 295.008 2.73539C293.213 2.08635 291.377 1.55589 289.513 1.14743C284.179 0.0309103 278.678 -0.034079 273.319 0.956114C270.037 1.55505 266.843 2.55976 263.809 3.94708C261.005 5.21447 258.354 6.79552 255.907 8.65993C251.691 11.8756 248.122 15.8592 245.388 20.4006C242.033 26.0232 240.064 32.3623 239.644 38.8949C239.561 39.7622 239.58 40.4254 239.548 40.8655C239.516 41.3055 239.465 41.5287 239.465 41.5287Z" fill="#CA2E55"/>
<path d="M320.586 27.8786C323.444 24.3725 322.917 19.2146 319.408 16.3582C315.899 13.5017 310.737 14.0284 307.878 17.5345C305.019 21.0406 305.546 26.1984 309.055 29.0549C312.564 31.9113 317.727 31.3846 320.586 27.8786Z" fill="#CA2E55"/>
<path d="M310.588 22.6378L311.744 21.4772L313.984 23.4669L317.648 19.666L318.727 20.8267L313.818 25.7053L310.588 22.6378Z" fill="white"/>
<path d="M142.114 178.743C140.946 178.872 139.849 179.368 138.98 180.159C138.131 180.905 137.978 182.531 137.972 183.22C137.972 185.968 138.45 188.29 140.218 190.401L146.882 200.171V203.806L162.277 203.168L161.358 194.406C161.358 194.406 161.901 191.408 162.163 190.235C162.424 189.061 162.163 185.675 162.163 185.675C162.163 185.675 160.012 177.665 160.139 173.89C160.267 170.114 157.535 160.019 156.488 157.156C155.441 154.292 152.907 156.244 152.837 158.718C152.767 161.192 154.471 166.53 154.012 171.218C154.012 171.218 153.75 172.78 152.837 171.804C152.327 171.256 149.544 170.561 147.833 172.818C147.482 173.299 147.244 173.853 147.137 174.438C147.023 175.006 146.793 175.752 146.391 175.714C145.567 175.529 144.705 175.62 143.94 175.975C142.765 176.479 142.114 178.743 142.114 178.743Z" fill="#DB8A76"/>
<path d="M147.45 176.299L148.031 186.796C148.002 187.858 148.239 188.91 148.72 189.857C148.992 190.332 149.415 190.701 149.922 190.907C150.429 191.113 150.99 191.143 151.516 190.992C151.836 190.846 152.119 190.628 152.34 190.355C152.562 190.081 152.717 189.76 152.793 189.417C152.928 188.748 152.958 188.061 152.882 187.383C152.608 182.924 152.563 178.454 152.748 173.99" fill="#DB8A76"/>
<path d="M152.729 173.979C152.745 174.095 152.745 174.213 152.729 174.329V175.331C152.729 176.249 152.729 177.499 152.729 179.023C152.729 180.547 152.773 182.441 152.863 184.501C152.907 185.528 152.965 186.606 153.035 187.728C153.091 188.315 153.052 188.907 152.92 189.482C152.774 190.101 152.398 190.642 151.867 190.993C151.591 191.157 151.28 191.254 150.96 191.277C150.64 191.3 150.319 191.249 150.022 191.127C149.451 190.913 148.962 190.525 148.624 190.018C148.097 189.039 147.837 187.939 147.871 186.829C147.769 184.782 147.68 182.926 147.603 181.357C147.527 179.788 147.488 178.583 147.45 177.665C147.45 177.256 147.45 176.925 147.45 176.657C147.432 176.541 147.432 176.422 147.45 176.306C147.48 176.419 147.497 176.534 147.501 176.651L147.59 177.652C147.654 178.57 147.737 179.82 147.846 181.344C147.954 182.869 148.056 184.763 148.184 186.816C148.157 187.871 148.406 188.915 148.905 189.845C149.207 190.292 149.64 190.635 150.144 190.827C150.393 190.93 150.663 190.974 150.932 190.955C151.201 190.936 151.462 190.855 151.695 190.719C152.153 190.411 152.479 189.942 152.607 189.405C152.733 188.864 152.77 188.306 152.716 187.754C152.652 186.638 152.601 185.547 152.563 184.52C152.492 182.454 152.48 180.592 152.499 179.029C152.518 177.467 152.569 176.204 152.614 175.337C152.614 174.897 152.658 174.559 152.684 174.329C152.682 174.211 152.697 174.093 152.729 173.979Z" fill="#A45B4A"/>
<path d="M159.877 184.583C158.684 184.283 156.616 183.193 155.41 182.727C154.516 182.377 153.424 182.166 152.659 182.727C152.359 183.001 152.135 183.347 152.008 183.733C151.88 184.118 151.854 184.529 151.931 184.927C152.098 185.957 152.564 186.915 153.271 187.682C153.524 187.987 153.808 188.262 154.12 188.505C154.45 188.733 154.811 188.911 155.193 189.034C155.312 189.065 155.419 189.132 155.499 189.226C155.636 189.493 155.735 189.779 155.792 190.074C156.058 190.805 156.496 191.461 157.069 191.987C157.203 192.11 157.346 192.223 157.497 192.325" fill="#DB8A76"/>
<path d="M157.535 192.358C157.535 192.358 157.465 192.358 157.356 192.262C157.191 192.157 157.035 192.038 156.89 191.905C156.358 191.415 155.948 190.808 155.69 190.132C155.607 189.903 155.575 189.667 155.493 189.495C155.46 189.402 155.397 189.323 155.314 189.271C155.202 189.219 155.087 189.174 154.969 189.137C154.418 188.949 153.92 188.629 153.52 188.206C152.536 187.303 151.911 186.076 151.759 184.75C151.719 184.396 151.755 184.038 151.865 183.699C151.975 183.36 152.157 183.049 152.397 182.786C152.649 182.566 152.948 182.406 153.271 182.32C153.594 182.234 153.933 182.223 154.261 182.288C154.828 182.379 155.378 182.553 155.895 182.805C156.38 183.022 156.82 183.232 157.229 183.442C158.033 183.825 158.684 184.131 159.143 184.323C159.387 184.41 159.626 184.51 159.858 184.622C159.595 184.605 159.336 184.544 159.092 184.444C158.614 184.291 157.943 184.016 157.12 183.653L155.78 183.073C155.283 182.842 154.757 182.683 154.216 182.601C153.934 182.549 153.645 182.561 153.369 182.636C153.093 182.712 152.837 182.847 152.62 183.034C152.414 183.265 152.258 183.536 152.163 183.83C152.069 184.125 152.037 184.436 152.071 184.743C152.222 185.99 152.805 187.146 153.718 188.009C154.086 188.406 154.543 188.71 155.052 188.895C155.181 188.939 155.307 188.992 155.429 189.054C155.56 189.136 155.659 189.26 155.71 189.405C155.805 189.66 155.824 189.896 155.895 190.088C156.123 190.744 156.486 191.346 156.961 191.854C157.163 192.01 157.354 192.178 157.535 192.358Z" fill="#A45B4A"/>
<path d="M158.588 175.297C158.105 176.403 157.366 177.378 156.431 178.141C155.569 178.987 154.516 179.613 153.361 179.965C154.344 179.323 155.295 178.632 156.207 177.892C157.045 177.069 157.84 176.202 158.588 175.297Z" fill="#A45B4A"/>
<path d="M150.175 191.12C150.175 191.12 150.227 191.171 150.297 191.292C150.393 191.47 150.476 191.656 150.546 191.847C150.668 192.159 150.701 192.499 150.641 192.829C150.584 193.052 150.466 193.255 150.302 193.416C150.138 193.578 149.933 193.692 149.71 193.747C149.144 193.86 148.559 193.837 148.004 193.68C147.449 193.522 146.94 193.235 146.518 192.841C145.508 191.917 144.717 190.78 144.201 189.513C143.604 188.301 143.113 187.04 142.733 185.744C142.423 184.68 142.253 183.58 142.229 182.472C142.216 181.725 142.295 180.98 142.465 180.253C142.516 179.982 142.604 179.721 142.727 179.475C142.534 180.46 142.446 181.462 142.465 182.466C142.521 183.547 142.71 184.618 143.027 185.654C143.419 186.929 143.912 188.17 144.501 189.366C144.998 190.592 145.754 191.697 146.716 192.606C147.098 192.97 147.558 193.242 148.061 193.401C148.565 193.56 149.098 193.602 149.62 193.524C149.809 193.482 149.984 193.392 150.127 193.262C150.27 193.133 150.377 192.968 150.437 192.784C150.5 192.486 150.487 192.177 150.399 191.885C150.284 191.394 150.144 191.132 150.175 191.12Z" fill="#A45B4A"/>
<path d="M146.882 178.742C147.087 179.62 147.247 180.508 147.361 181.402C147.584 182.274 147.763 183.158 147.897 184.048C147.445 183.249 147.152 182.37 147.035 181.459C146.813 180.571 146.761 179.649 146.882 178.742Z" fill="#A45B4A"/>
<path d="M146.046 192.148C146.046 192.18 145.835 192.384 145.408 192.556C144.796 192.744 144.142 192.744 143.531 192.556C142.922 192.379 142.37 192.047 141.929 191.593C141.597 191.236 141.495 190.955 141.527 190.955C141.559 190.955 141.744 191.159 142.095 191.446C142.544 191.819 143.066 192.094 143.627 192.256C144.184 192.423 144.775 192.447 145.344 192.326C145.752 192.224 146.014 192.103 146.046 192.148Z" fill="#A45B4A"/>
<path d="M219.997 158.149L212.848 164.947L191.064 174.303V214.352L202.853 261.8L199.113 277.851H277.621L273.555 263.592C273.555 263.592 275.681 235.691 278.623 217.337C281.272 200.864 276.294 171.541 276.294 171.541L258.875 165.413L251.752 157.76L219.997 158.149Z" fill="#FFC233"/>
<path d="M197.377 171.625C197.377 171.625 185.07 175.879 182.013 182.951C181.49 184.169 169.279 215.335 169.279 215.335L149.091 244.531C149.091 244.531 154.331 261.832 171.986 261.08C171.986 261.08 177.775 261.08 184.528 250.595C190.509 241.329 194.153 224.493 194.153 224.493L197.377 171.625Z" fill="#FFC233"/>
<path d="M238.68 227.044C238.635 226.99 238.594 226.933 238.558 226.872L238.252 226.362L237.09 224.385L232.865 217.077C229.316 210.871 224.433 202.332 219.033 192.9C216.512 188.436 214.106 184.227 211.904 180.362L211.827 180.222L211.968 180.145L217.795 176.957L217.833 177.212L210.397 175.452H210.289V175.343C211.061 172.123 211.68 169.527 212.121 167.691C212.338 166.817 212.504 166.128 212.625 165.643C212.682 165.42 212.733 165.248 212.765 165.114C212.776 165.052 212.796 164.992 212.823 164.936C212.833 164.997 212.833 165.059 212.823 165.12C212.823 165.254 212.759 165.433 212.714 165.656C212.606 166.147 212.459 166.836 212.261 167.722C211.853 169.54 211.265 172.136 210.531 175.375L210.448 175.241L217.891 176.906L218.248 176.989L217.929 177.167L212.114 180.413L212.172 180.203C214.38 184.068 216.799 188.296 219.327 192.728C224.688 202.179 229.539 210.738 233.069 216.962C234.805 220.055 236.216 222.568 237.199 224.328L238.309 226.337C238.424 226.553 238.52 226.726 238.59 226.866C238.625 226.922 238.655 226.982 238.68 227.044Z" fill="#263238"/>
<path d="M238.45 227.439C238.459 227.374 238.481 227.311 238.514 227.254C238.571 227.113 238.648 226.941 238.743 226.724L239.656 224.703C240.467 222.93 241.628 220.411 243.058 217.299L254.407 192.925C256.736 187.957 258.945 183.237 260.936 179.003L261.013 179.207L256.009 177.134L255.722 177.013L256.009 176.879L262.704 173.78L262.653 173.927C261.377 171.14 260.317 168.908 259.596 167.345C259.251 166.586 258.958 165.993 258.785 165.572L258.587 165.107C258.56 165.057 258.541 165.003 258.53 164.947C258.563 164.993 258.591 165.042 258.613 165.094C258.677 165.209 258.753 165.355 258.843 165.54C259.053 165.961 259.341 166.548 259.704 167.294L262.858 173.831L262.902 173.933L262.8 173.984L256.149 177.128V176.873L261.16 178.926L261.307 178.99L261.243 179.13L254.739 193.065L243.301 217.401C241.826 220.487 240.633 223 239.796 224.754C239.388 225.608 239.062 226.272 238.833 226.75L238.571 227.267C238.534 227.326 238.494 227.384 238.45 227.439Z" fill="#263238"/>
<path d="M149.11 244.53L142.223 202.58L167.033 198.371L176.677 245.123L149.11 244.53Z" fill="#FFC233"/>
<path d="M174.124 235.691C174.069 235.574 174.03 235.449 174.009 235.321C173.939 235.04 173.849 234.683 173.747 234.243C173.517 233.312 173.224 231.947 172.879 230.264C172.183 226.89 171.341 222.209 170.46 217.037C169.579 211.865 168.775 207.178 168.137 203.798C167.824 202.14 167.562 200.788 167.377 199.799C167.294 199.353 167.224 198.996 167.173 198.709C167.144 198.583 167.127 198.455 167.122 198.326C167.177 198.444 167.216 198.568 167.237 198.696C167.307 198.977 167.396 199.334 167.498 199.774C167.728 200.705 168.022 202.07 168.366 203.753C169.062 207.127 169.911 211.808 170.786 216.98C171.66 222.152 172.471 226.839 173.109 230.219C173.428 231.877 173.683 233.229 173.868 234.218C173.951 234.664 174.022 235.021 174.073 235.308C174.101 235.434 174.118 235.562 174.124 235.691Z" fill="#263238"/>
<path d="M188.524 196.395C188.548 196.447 188.563 196.503 188.568 196.56C188.568 196.694 188.632 196.854 188.67 197.058C188.753 197.523 188.875 198.161 189.021 198.971C189.309 200.642 189.781 203.046 190.355 206.018C191.53 211.962 193.285 220.144 195.315 229.155C197.345 238.166 199.259 246.323 200.644 252.222C201.334 255.149 201.921 257.528 202.285 259.205C202.47 260.008 202.617 260.646 202.719 261.118C202.764 261.322 202.795 261.482 202.827 261.615C202.834 261.673 202.834 261.73 202.827 261.788C202.801 261.735 202.782 261.679 202.77 261.622C202.732 261.494 202.687 261.335 202.63 261.131L202.132 259.249C201.717 257.579 201.123 255.206 200.389 252.285C198.947 246.406 196.994 238.255 194.964 229.244C192.934 220.233 191.217 212.025 190.1 206.075C189.551 203.097 189.117 200.68 188.868 199.003L188.581 197.09C188.549 196.886 188.53 196.72 188.511 196.586C188.506 196.522 188.511 196.457 188.524 196.395Z" fill="#263238"/>
<path d="M276.294 171.543C281.362 173.024 285.931 175.854 289.512 179.731C295.723 186.396 310.869 277.834 310.869 277.834H283.704L274.991 232.089L276.294 171.543Z" fill="#FFC233"/>
<path d="M280.296 189.156C280.303 189.22 280.303 189.284 280.296 189.348C280.296 189.494 280.296 189.679 280.296 189.915C280.296 190.438 280.238 191.191 280.2 192.09C280.111 194.003 279.938 196.713 279.689 200.087C279.198 206.834 278.298 216.139 277.206 226.4C276.115 236.661 275.157 245.953 274.545 252.687C274.251 256.042 274.015 258.758 273.849 260.665C273.766 261.59 273.702 262.317 273.657 262.834C273.657 263.07 273.613 263.254 273.6 263.401C273.595 263.466 273.584 263.53 273.568 263.592C273.561 263.527 273.561 263.46 273.568 263.395C273.568 263.248 273.568 263.063 273.568 262.834C273.6 262.311 273.645 261.558 273.696 260.659C273.811 258.746 274.015 256.042 274.289 252.668C274.845 245.927 275.77 236.629 276.843 226.362C277.915 216.094 278.872 206.809 279.396 200.068C279.676 196.701 279.881 193.971 280.034 192.083C280.104 191.159 280.155 190.432 280.193 189.909C280.193 189.679 280.232 189.494 280.245 189.348C280.252 189.282 280.269 189.217 280.296 189.156Z" fill="#263238"/>
<path d="M238.45 277.833C238.354 277.833 238.284 266.545 238.284 252.636C238.284 238.727 238.354 227.439 238.45 227.439C238.546 227.439 238.616 238.715 238.616 252.636C238.616 266.558 238.539 277.833 238.45 277.833Z" fill="#263238"/>
<path d="M255.435 250.423C255.31 250.442 255.183 250.442 255.058 250.423L253.992 250.276C253.073 250.149 251.739 249.926 250.099 249.639C245.83 248.827 241.605 247.799 237.441 246.558C233.276 245.317 229.175 243.868 225.155 242.215C223.616 241.578 222.378 241.036 221.535 240.64L220.565 240.175C220.448 240.128 220.337 240.068 220.233 239.996C220.357 240.021 220.477 240.062 220.591 240.117L221.587 240.519C222.448 240.876 223.693 241.386 225.244 241.999C228.34 243.217 232.667 244.792 237.537 246.246C242.407 247.7 246.888 248.739 250.15 249.435C251.777 249.773 253.098 250.034 254.018 250.2L255.071 250.41C255.192 250.407 255.314 250.411 255.435 250.423Z" fill="#263238"/>
<path d="M246.192 253.957C246.192 254.046 243.256 254.525 239.599 255.028C235.941 255.532 232.98 255.864 232.967 255.775C235.143 255.303 237.341 254.943 239.554 254.697C241.753 254.339 243.968 254.092 246.192 253.957Z" fill="#263238"/>
<g opacity="0.3">
<path opacity="0.3" d="M280.161 196.414C278.106 209.666 277.538 223.715 275.891 237.306H276.07C281.243 224.328 282.661 210.158 280.161 196.414Z" fill="black"/>
</g>
<g opacity="0.3">
<path opacity="0.3" d="M170.269 216.516C174.283 222.511 176.685 229.438 177.245 236.63C177.343 237.238 177.266 237.862 177.022 238.428C176.955 238.565 176.863 238.688 176.749 238.79C176.635 238.892 176.502 238.97 176.358 239.02C176.214 239.071 176.062 239.092 175.91 239.083C175.757 239.075 175.608 239.036 175.471 238.97C175.138 238.679 174.932 238.269 174.896 237.829C173.411 230.814 171.922 223.799 170.428 216.783" fill="black"/>
</g>
<path opacity="0.3" d="M261.562 174.43L262.175 175.673L258.824 177.191L264.122 179.136L241.112 221.743L261.077 179.066L256.073 177.006L261.562 174.43Z" fill="black"/>
<path d="M270.045 227.808C270.037 227.666 270.037 227.523 270.045 227.381C270.045 227.081 270.045 226.686 270.045 226.182C270.045 225.123 270.013 223.631 269.987 221.718L270.089 221.826C265.155 221.865 257.407 221.884 248.713 221.884L248.879 221.718V224.798C248.879 225.806 248.879 226.801 248.879 227.77L248.72 227.611L263.949 227.681L268.417 227.725H269.636H270.07C269.938 227.735 269.806 227.735 269.674 227.725H268.494L264.026 227.77L248.707 227.84H248.541V221.629L248.707 221.463C257.4 221.463 265.149 221.463 270.083 221.527H270.191V221.629C270.191 223.542 270.147 225.053 270.134 226.131C270.134 226.622 270.134 227.011 270.134 227.305C270.132 227.476 270.102 227.646 270.045 227.808Z" fill="#263238"/>
<path d="M187.209 193.881C186.448 192.064 185.789 190.205 185.236 188.314C184.575 186.458 184.021 184.565 183.577 182.645C184.339 184.462 184.998 186.32 185.549 188.212C186.208 190.069 186.762 191.962 187.209 193.881Z" fill="#263238"/>
<path d="M280.94 176.395C280.934 177.678 280.817 178.958 280.589 180.221C280.477 181.497 280.25 182.761 279.913 183.996C279.922 182.713 280.04 181.433 280.264 180.17C280.38 178.894 280.606 177.631 280.94 176.395Z" fill="#263238"/>
<path d="M257.1 130.861C260.515 130.491 263.962 132.277 266.036 135.019C268.03 137.854 268.936 141.31 268.589 144.757C268.245 149.151 266.151 153.494 262.57 156.07C258.99 158.647 253.909 159.208 250.086 157.002C246.62 154.999 244.577 151.001 244.405 147.002C244.233 143.003 245.777 139.069 248.133 135.835C250.328 132.825 253.96 130.172 257.534 131.231" fill="#263238"/>
<path d="M261.926 108.011C259.73 99.8803 256.347 110.345 253.577 111.2C251.93 111.71 250.775 113.26 250.277 114.912C249.874 116.593 249.746 118.329 249.901 120.052C250.262 130.545 250.628 141.037 250.999 151.53C257.26 148.571 262.181 141.556 264.007 134.885C265.832 128.215 263.732 114.695 261.926 108.011Z" fill="#263238"/>
<path d="M234.99 85.2125C224.523 79.5877 216.123 82.9103 212.012 86.1053C207.902 89.3004 205.489 94.1535 203.983 99.1151C202.476 104.077 201.832 109.249 200.613 114.28C199.591 118.515 198.168 122.667 197.568 126.978C196.968 131.289 197.262 135.906 199.483 139.649C201.602 143.259 205.227 145.682 208.731 147.978C210.008 148.801 211.482 149.662 212.919 149.209C213.965 148.877 214.674 147.934 215.299 147.034C226.67 130.808 235.587 112.996 241.763 94.1727L234.99 85.2125Z" fill="#263238"/>
<path d="M246.645 97.2962L228.512 89.9941L223.763 90.5235C213.085 90.5235 205.668 102.239 205.553 110.88C205.432 120.484 205.661 132.206 207.155 139.291C210.155 153.531 221.261 154.813 221.261 154.813C221.261 154.813 221.133 158.697 221.019 163.48C220.971 165.516 221.336 167.54 222.092 169.43C222.848 171.321 223.98 173.039 225.418 174.481C226.857 175.923 228.572 177.059 230.462 177.821C232.352 178.583 234.376 178.954 236.414 178.913C240.356 178.835 244.111 177.22 246.877 174.412C249.642 171.605 251.2 167.828 251.216 163.888L251.445 102.188C251.405 100.919 250.89 99.7124 250.001 98.8063C249.111 97.9002 247.914 97.3612 246.645 97.2962Z" fill="#DB8A76"/>
<path d="M210.18 120.607C210.202 121.086 210.409 121.538 210.758 121.868C211.107 122.197 211.57 122.379 212.051 122.373C212.286 122.38 212.52 122.34 212.74 122.255C212.96 122.17 213.16 122.042 213.329 121.879C213.499 121.715 213.634 121.52 213.727 121.303C213.819 121.087 213.868 120.855 213.87 120.619C213.85 120.139 213.643 119.685 213.294 119.354C212.945 119.023 212.481 118.841 212 118.846C211.764 118.84 211.529 118.88 211.309 118.965C211.089 119.051 210.888 119.179 210.718 119.343C210.549 119.507 210.414 119.704 210.322 119.921C210.229 120.138 210.181 120.371 210.18 120.607Z" fill="#263238"/>
<path d="M209.344 115.786C209.581 116.016 210.927 114.912 212.912 114.817C214.897 114.721 216.397 115.639 216.602 115.391C216.704 115.276 216.448 114.855 215.791 114.428C214.904 113.873 213.867 113.608 212.823 113.669C211.791 113.719 210.801 114.094 209.995 114.74C209.408 115.237 209.223 115.684 209.344 115.786Z" fill="#263238"/>
<path d="M221.452 131.296C221.452 131.181 220.214 131.034 218.204 130.875C217.693 130.875 217.208 130.773 217.106 130.435C217.04 129.906 217.138 129.369 217.387 128.898L218.663 124.969C220.469 119.376 221.746 114.766 221.523 114.721C221.299 114.676 219.646 119.128 217.846 124.714L216.601 128.662C216.315 129.288 216.259 129.995 216.442 130.658C216.524 130.833 216.645 130.987 216.795 131.109C216.945 131.23 217.121 131.316 217.31 131.359C217.595 131.423 217.887 131.449 218.178 131.436C220.208 131.449 221.452 131.41 221.452 131.296Z" fill="#263238"/>
<path d="M221.261 154.809C228.033 154.575 234.607 152.466 240.25 148.719C240.25 148.719 235.622 158.922 221.172 158.285L221.261 154.809Z" fill="#A45B4A"/>
<path d="M222.531 136.026C222.886 135.533 223.36 135.139 223.91 134.879C224.459 134.619 225.065 134.502 225.672 134.54C226.111 134.558 226.542 134.664 226.939 134.853C227.336 135.041 227.691 135.308 227.982 135.637C228.266 135.953 228.444 136.349 228.493 136.77C228.542 137.192 228.46 137.618 228.257 137.99C227.957 138.36 227.554 138.632 227.1 138.771C226.645 138.911 226.159 138.912 225.703 138.775C224.75 138.492 223.862 138.021 223.093 137.391C222.861 137.245 222.66 137.057 222.499 136.836C222.418 136.731 222.371 136.604 222.365 136.471C222.359 136.339 222.395 136.208 222.467 136.096" fill="#A45B4A"/>
<path d="M227.357 132.372C227.037 132.372 227.14 134.521 225.372 136.141C223.603 137.76 221.306 137.639 221.306 137.939C221.306 138.073 221.835 138.328 222.806 138.309C224.067 138.262 225.272 137.772 226.208 136.925C227.109 136.114 227.656 134.984 227.733 133.775C227.771 132.875 227.503 132.352 227.357 132.372Z" fill="#263238"/>
<path d="M209.625 110.243C210.002 110.676 211.342 110.141 212.983 110.039C214.623 109.937 216.033 110.185 216.327 109.701C216.461 109.465 216.219 109.025 215.587 108.629C214.744 108.16 213.781 107.951 212.82 108.03C211.859 108.108 210.942 108.47 210.187 109.069C209.632 109.56 209.466 110.032 209.625 110.243Z" fill="#263238"/>
<path d="M232.067 120.466C232.078 120.947 231.9 121.412 231.572 121.763C231.244 122.115 230.792 122.324 230.312 122.348C230.078 122.368 229.842 122.342 229.618 122.271C229.394 122.199 229.187 122.084 229.009 121.931C228.83 121.778 228.684 121.592 228.579 121.382C228.474 121.172 228.412 120.943 228.397 120.709C228.386 120.228 228.564 119.763 228.892 119.411C229.22 119.06 229.672 118.85 230.152 118.827C230.386 118.806 230.622 118.832 230.846 118.904C231.07 118.976 231.277 119.091 231.455 119.244C231.634 119.396 231.78 119.583 231.885 119.793C231.99 120.003 232.052 120.232 232.067 120.466Z" fill="#263238"/>
<path d="M235.807 115.555C235.584 115.797 234.173 114.777 232.188 114.809C230.203 114.841 228.754 115.848 228.537 115.612C228.429 115.504 228.659 115.07 229.29 114.598C230.14 113.993 231.157 113.665 232.201 113.661C233.234 113.644 234.247 113.954 235.092 114.547C235.705 115.013 235.897 115.44 235.807 115.555Z" fill="#263238"/>
<path d="M234.946 109.26C234.601 109.719 233.222 109.26 231.582 109.26C229.942 109.26 228.544 109.598 228.218 109.133C228.078 108.903 228.288 108.45 228.895 108.017C229.701 107.482 230.654 107.212 231.62 107.245C232.586 107.245 233.527 107.551 234.308 108.119C234.895 108.578 235.093 109.043 234.946 109.26Z" fill="#263238"/>
<path d="M230.605 88.4643C235.201 86.6149 242.222 87.2399 246.16 90.2308C250.098 93.2218 252.543 97.8837 253.468 102.769C254.394 107.654 253.162 114.835 251.873 119.611C244.443 110.045 236.79 99.0124 229.622 89.2551L230.605 88.4643Z" fill="#263238"/>
<path d="M227.088 84.116C201.902 80.5702 204.232 118.636 204.232 118.636C206.746 104.606 228.486 89.9959 228.486 89.9959L230.229 89.2689L227.088 84.116Z" fill="#263238"/>
<path d="M249.862 126.447C249.811 125.382 250.922 122.799 251.969 122.582C254.771 121.995 259.871 121.944 260.266 129.132C260.822 138.914 250.871 137.422 250.839 137.173C250.807 136.925 250.041 130.171 249.862 126.447Z" fill="#DB8A76"/>
<path d="M252.333 133.298C252.371 133.266 252.505 133.406 252.805 133.521C253.22 133.675 253.678 133.659 254.081 133.476C255.096 133.043 255.869 131.346 255.818 129.58C255.785 128.739 255.567 127.916 255.179 127.169C255.069 126.869 254.888 126.6 254.651 126.384C254.414 126.169 254.129 126.014 253.82 125.932C253.621 125.893 253.414 125.923 253.235 126.018C253.056 126.114 252.915 126.268 252.837 126.455C252.722 126.735 252.798 126.933 252.747 126.952C252.696 126.971 252.524 126.799 252.581 126.391C252.625 126.146 252.748 125.921 252.933 125.753C253.06 125.644 253.209 125.562 253.369 125.511C253.529 125.459 253.697 125.44 253.864 125.454C254.271 125.51 254.656 125.669 254.982 125.917C255.308 126.165 255.565 126.493 255.728 126.869C256.195 127.691 256.452 128.616 256.475 129.561C256.526 131.537 255.62 133.438 254.228 133.929C253.969 134.02 253.693 134.052 253.42 134.022C253.147 133.992 252.885 133.902 252.652 133.757C252.358 133.534 252.294 133.317 252.333 133.298Z" fill="#A45B4A"/>
<path d="M261.383 103.036C258.875 96.327 253.813 90.7851 247.909 86.7292C244.718 84.5545 241.214 82.7306 237.397 82.265C233.58 81.7995 229.425 82.9028 226.891 85.7917L226.182 86.5123C230.516 96.0783 233.561 104.222 239.139 113.15C241.188 116.435 245.324 122.391 246.594 126.045C249.818 135.331 252.339 143.596 252.339 143.596C267.843 143.615 263.885 109.764 261.383 103.036Z" fill="#263238"/>
<path d="M264.76 126.785C264.802 127.151 264.819 127.52 264.811 127.888C264.827 128.894 264.772 129.9 264.645 130.899C264.466 132.381 264.158 133.844 263.726 135.273C263.509 136.09 263.17 136.906 262.858 137.773C262.545 138.641 262.117 139.489 261.632 140.324C260.776 141.944 259.726 143.454 258.505 144.82L258.09 145.292L257.656 145.719C257.362 145.994 257.088 146.274 256.813 146.523C256.284 146.982 255.728 147.408 255.147 147.798L254.381 148.296C254.139 148.455 253.89 148.557 253.666 148.679C253.284 148.886 252.888 149.065 252.479 149.214C252.138 149.355 251.786 149.466 251.426 149.546C252.68 149.023 253.881 148.383 255.013 147.633C255.575 147.238 256.114 146.812 256.628 146.357C256.896 146.102 257.164 145.828 257.445 145.554L257.873 145.126L258.275 144.661C259.465 143.296 260.493 141.798 261.338 140.197C261.817 139.361 262.175 138.488 262.558 137.646C262.941 136.804 263.196 135.988 263.432 135.184C263.874 133.773 264.203 132.33 264.415 130.867C264.557 129.877 264.646 128.881 264.683 127.882C264.677 127.515 264.703 127.148 264.76 126.785Z" fill="#455A64"/>
<path d="M260.445 142.589C260.459 142.533 260.481 142.48 260.509 142.43L260.732 141.977C260.822 141.779 260.962 141.543 261.09 141.25L261.511 140.223C262.325 138.015 262.73 135.676 262.705 133.323C262.646 129.833 261.868 126.392 260.42 123.215C258.592 119.352 256.128 115.823 253.13 112.775C250.13 109.722 246.959 106.841 243.633 104.147C240.595 101.596 237.888 99.2999 235.724 97.2209C234.005 95.597 232.395 93.8606 230.905 92.0234C230.388 91.3857 229.993 90.85 229.744 90.4865L229.457 90.0783C229.421 90.0332 229.391 89.9839 229.367 89.9316C229.367 89.9316 229.412 89.9699 229.482 90.0592L229.795 90.4482C230.063 90.799 230.471 91.3028 231.008 91.9405C232.53 93.7364 234.159 95.4401 235.884 97.0424C238.061 99.0895 240.78 101.379 243.824 103.898C247.181 106.587 250.378 109.471 253.398 112.533C256.424 115.608 258.908 119.172 260.745 123.075C262.193 126.295 262.956 129.78 262.985 133.31C263 135.687 262.567 138.045 261.709 140.262C261.537 140.638 261.383 140.982 261.256 141.276C261.128 141.569 260.968 141.805 260.866 141.996L260.617 142.43C260.568 142.491 260.51 142.544 260.445 142.589Z" fill="#455A64"/>
<path d="M260.662 113.776C260.558 113.694 260.462 113.602 260.375 113.502L259.59 112.673C258.913 111.952 257.924 110.913 256.679 109.657C250.19 103.1 242.958 97.3219 235.131 92.4377C233.631 91.5003 232.405 90.7605 231.544 90.263L230.567 89.6763C230.447 89.6173 230.335 89.5422 230.235 89.4531C230.361 89.4979 230.483 89.5534 230.599 89.6189L231.607 90.1483C232.488 90.6138 233.733 91.3217 235.252 92.24C243.173 97.0253 250.433 102.827 256.845 109.497C258.071 110.773 259.041 111.838 259.685 112.59L260.426 113.457C260.52 113.551 260.599 113.659 260.662 113.776Z" fill="#455A64"/>
<path d="M203.983 99.1147C204.011 99.0043 204.052 98.8974 204.104 98.7959C204.187 98.5854 204.327 98.2921 204.506 97.9094C204.883 97.1505 205.451 96.0664 206.223 94.7654C207.124 93.2381 208.112 91.7645 209.185 90.3523C210.474 88.5873 212.011 87.0172 213.748 85.6905C215.514 84.3457 217.668 83.6075 219.889 83.5859C220.858 83.6173 221.809 83.8566 222.678 84.2874C223.428 84.6604 224.12 85.1394 224.733 85.7096C225.603 86.5422 226.357 87.4882 226.974 88.522C227.191 88.8791 227.35 89.1597 227.452 89.3702C227.511 89.4676 227.556 89.5728 227.586 89.6827C227.586 89.6827 227.331 89.2873 226.865 88.5858C226.215 87.5963 225.445 86.6903 224.574 85.8882C223.969 85.3448 223.293 84.8876 222.563 84.5298C221.724 84.1325 220.811 83.9153 219.882 83.892C217.732 83.9331 215.651 84.6568 213.94 85.9583C212.23 87.2674 210.711 88.8086 209.427 90.5372C208.35 91.9337 207.347 93.3855 206.421 94.8866C205.629 96.162 205.029 97.2271 204.621 97.9668L204.161 98.8214C204.116 98.927 204.056 99.0258 203.983 99.1147Z" fill="#455A64"/>
<path d="M221.618 82.0488C221.618 82.0488 221.784 82.0488 222.078 82.0488C222.254 82.0574 222.429 82.0809 222.601 82.119C222.834 82.1588 223.064 82.212 223.291 82.2784C223.883 82.4541 224.451 82.7026 224.982 83.0182C225.63 83.4076 226.224 83.8792 226.75 84.4212C227.266 84.973 227.71 85.588 228.071 86.2515C228.353 86.7975 228.568 87.3757 228.71 87.9734C228.77 88.2015 228.813 88.4339 228.837 88.6685C228.869 88.8431 228.884 89.0204 228.882 89.1978C228.882 89.4912 228.882 89.6506 228.882 89.6506C228.882 89.6506 228.799 89.0129 228.512 88.0371C228.34 87.4664 228.104 86.9166 227.81 86.3982C227.098 85.1243 226.075 84.0514 224.835 83.2797C224.33 82.9648 223.793 82.704 223.233 82.5016C222.257 82.1636 221.612 82.1126 221.618 82.0488Z" fill="#455A64"/>
<path d="M219.997 163.596L237.333 172.474L252.147 161.377L238.68 227.038L219.997 163.596Z" fill="white"/>
<path d="M248.662 178.92C248.533 179.033 248.392 179.131 248.241 179.213L247.009 179.979L242.49 182.715L242.375 182.785L242.305 182.664L237.027 173.289H237.32L237.033 173.927L232.469 183.493L232.412 183.614L232.291 183.556L227.012 181.005L225.557 180.278C225.381 180.2 225.214 180.104 225.059 179.991C225.243 180.046 225.423 180.117 225.595 180.202L227.082 180.84L232.405 183.295L232.227 183.359L236.727 173.748L237.02 173.11L237.161 172.811L237.314 173.098C239.286 176.643 241.092 179.896 242.535 182.504L242.356 182.453L246.933 179.819L248.209 179.111C248.354 179.034 248.506 178.97 248.662 178.92Z" fill="#263238"/>
<path d="M238.68 227.043C238.646 226.864 238.631 226.683 238.635 226.501C238.635 226.118 238.616 225.602 238.577 224.951C238.533 223.574 238.475 221.641 238.405 219.263C238.239 214.429 238.009 207.784 237.767 200.488C237.524 193.192 237.307 186.515 237.218 181.707C237.18 179.302 237.154 177.357 237.154 176.012C237.154 175.374 237.154 174.845 237.154 174.462C237.139 174.282 237.139 174.1 237.154 173.92C237.179 174.1 237.192 174.281 237.192 174.462C237.192 174.845 237.224 175.361 237.25 176.005C237.295 177.383 237.352 179.322 237.422 181.7C237.588 186.534 237.818 193.179 238.06 200.475C238.303 207.771 238.526 214.448 238.609 219.256C238.654 221.661 238.673 223.606 238.673 224.951C238.673 225.589 238.673 226.118 238.673 226.501C238.688 226.681 238.69 226.862 238.68 227.043Z" fill="#263238"/>
<path d="M408.233 277.834C408.233 277.924 327.069 278 226.961 278C126.853 278 45.6892 277.924 45.6892 277.834C45.6892 277.745 126.834 277.662 226.961 277.662C327.088 277.662 408.233 277.739 408.233 277.834Z" fill="#263238"/>
<path d="M97.3516 157.238C121.735 157.238 141.501 137.488 141.501 113.126C141.501 88.7633 121.735 69.0137 97.3516 69.0137C72.9682 69.0137 53.2017 88.7633 53.2017 113.126C53.2017 137.488 72.9682 157.238 97.3516 157.238Z" fill="#A8A8A8" fill-opacity="0.2"/>
<path d="M141.501 113.126C141.501 113.126 141.501 112.884 141.469 112.412C141.437 111.94 141.469 111.232 141.374 110.314C141.188 107.63 140.761 104.969 140.097 102.361C137.631 92.699 131.962 84.1566 124.012 78.1275C118.556 73.9863 112.206 71.1758 105.47 69.9199C99.7672 68.8703 93.9143 68.9374 88.2368 70.1176C86.2416 70.5519 84.276 71.1121 82.3518 71.7949C74.1734 74.7731 67.057 80.0975 61.8949 87.1005C60.5545 88.9182 59.3574 90.8372 58.3142 92.84C57.2376 94.886 56.3365 97.0194 55.6206 99.2174C52.6164 108.223 52.6164 117.959 55.6206 126.965C56.3343 129.163 57.2333 131.296 58.3078 133.342C59.3517 135.346 60.5511 137.265 61.8949 139.082C67.0546 146.087 74.1718 151.412 82.3518 154.388C84.2751 155.073 86.2409 155.634 88.2368 156.065C93.9143 157.244 99.7665 157.313 105.47 156.269C112.206 155.01 118.556 152.197 124.012 148.055C128.504 144.631 132.305 140.388 135.214 135.549C137.395 131.891 139.04 127.939 140.097 123.815C140.761 121.208 141.188 118.546 141.374 115.862C141.457 114.944 141.437 114.236 141.469 113.764C141.501 113.292 141.501 113.05 141.501 113.05C141.501 113.05 141.501 114.019 141.437 115.869C141.285 118.56 140.881 121.231 140.231 123.847C139.189 127.992 137.555 131.965 135.38 135.645C132.476 140.518 128.668 144.793 124.159 148.24C118.684 152.422 112.302 155.262 105.528 156.53C101.765 157.237 97.9268 157.451 94.109 157.168C92.1119 157.027 90.1267 156.753 88.1666 156.346C86.1572 155.915 84.1785 155.353 82.2433 154.662C73.9936 151.67 66.8184 146.299 61.6269 139.229C60.2688 137.391 59.0586 135.448 58.0078 133.419C56.927 131.373 56.0196 129.239 55.2951 127.042C52.2698 117.965 52.2698 108.154 55.2951 99.0771C56.0209 96.8799 56.9282 94.7467 58.0078 92.6997C63.1373 82.8293 71.7957 75.2483 82.2625 71.4632C84.1987 70.7774 86.1773 70.2172 88.1857 69.786C90.1431 69.3741 92.1264 69.0971 94.1217 68.9569C97.9417 68.6738 101.782 68.8881 105.547 69.5947C112.321 70.8635 118.703 73.7032 124.178 77.8852C128.686 81.3333 132.494 85.6079 135.399 90.4804C136.588 92.4724 137.61 94.5584 138.457 96.7175C140.183 101.041 141.197 105.615 141.457 110.263C141.527 112.157 141.501 113.126 141.501 113.126Z" fill="#4D7298"/>
<path d="M145.695 113.126C145.695 113.126 145.695 112.864 145.657 112.341C145.618 111.818 145.657 111.066 145.555 110.046C145.359 107.106 144.896 104.19 144.169 101.334C143.645 99.2723 142.982 97.2482 142.184 95.2757C141.25 92.9239 140.125 90.6524 138.821 88.4838C135.638 83.1857 131.477 78.5394 126.559 74.7917C120.586 70.2485 113.63 67.1667 106.249 65.7933C99.9989 64.6409 93.5837 64.7167 87.3624 66.0165C85.1752 66.4852 83.0215 67.0987 80.9158 67.8532C71.952 71.1167 64.1563 76.9596 58.5121 84.6447C57.0385 86.6443 55.7259 88.7576 54.5867 90.9646C53.9931 92.0679 53.4825 93.2158 52.9655 94.3701C52.4485 95.5244 52.0208 96.7106 51.6379 97.9223C50.0101 102.824 49.1783 107.955 49.1741 113.119C49.1903 115.715 49.4036 118.305 49.8124 120.868C50.2199 123.398 50.8325 125.892 51.6442 128.323C52.0272 129.535 52.5123 130.708 52.9782 131.882C53.4442 133.055 53.9995 134.184 54.5931 135.287C60.1606 146.019 69.5599 154.27 80.9286 158.405C83.0365 159.153 85.1896 159.766 87.3752 160.242C89.5056 160.687 91.6636 160.987 93.8346 161.141C97.9912 161.457 102.171 161.228 106.268 160.458C113.646 159.083 120.6 156.002 126.572 151.46C131.491 147.714 135.652 143.067 138.833 137.768C140.141 135.601 141.266 133.329 142.197 130.976C142.995 129.004 143.658 126.979 144.182 124.918C144.909 122.062 145.373 119.146 145.567 116.206C145.657 115.198 145.637 114.427 145.669 113.91C145.701 113.394 145.708 113.126 145.708 113.126C145.708 113.126 145.708 113.394 145.708 113.91C145.708 114.427 145.708 115.186 145.631 116.212C145.347 121.298 144.237 126.304 142.344 131.033C141.42 133.4 140.299 135.685 138.993 137.863C135.815 143.198 131.647 147.878 126.712 151.651C120.71 156.235 113.714 159.346 106.287 160.733C102.17 161.509 97.9686 161.744 93.7899 161.434C91.6042 161.28 89.4312 160.98 87.2858 160.535C85.0847 160.061 82.9164 159.445 80.7945 158.692C71.7666 155.411 63.9132 149.533 58.2249 141.798C56.7409 139.779 55.4178 137.647 54.2676 135.421C53.674 134.311 53.1633 133.151 52.64 131.996C52.1166 130.842 51.6889 129.63 51.2996 128.412C50.4836 125.966 49.8667 123.458 49.4549 120.913C49.0433 118.331 48.8299 115.721 48.8167 113.107C48.8197 107.905 49.658 102.737 51.2996 97.8011C51.6825 96.583 52.1676 95.4032 52.64 94.217C53.1123 93.0309 53.6676 91.9021 54.2676 90.7924C55.4166 88.5659 56.7398 86.4335 58.2249 84.4151C63.9166 76.694 71.7704 70.831 80.7945 67.5662C82.9134 66.8105 85.0797 66.1948 87.2795 65.7231C93.5407 64.428 99.9942 64.3609 106.281 65.5254C110.129 66.2332 113.873 67.4202 117.425 69.0585C120.711 70.5484 123.816 72.4077 126.681 74.6004C131.613 78.3755 135.781 83.0548 138.961 88.3882C140.261 90.5705 141.382 92.8548 142.312 95.2183C144.206 99.9498 145.316 104.958 145.599 110.046C145.682 111.053 145.65 111.825 145.676 112.341C145.701 112.858 145.695 113.126 145.695 113.126Z" fill="#4D7298"/>
<path d="M68.8264 118.724C68.8264 118.168 69.0473 117.635 69.4404 117.242C69.8336 116.85 70.3668 116.629 70.9229 116.629C71.4789 116.629 72.0121 116.85 72.4053 117.242C72.7984 117.635 73.0193 118.168 73.0193 118.724C73.0193 119.279 72.7984 119.812 72.4053 120.205C72.0121 120.598 71.4789 120.818 70.9229 120.818C70.3668 120.818 69.8336 120.598 69.4404 120.205C69.0473 119.812 68.8264 119.279 68.8264 118.724Z" fill="#291F1E"/>
<path d="M74.3298 114.85C74.3298 111.331 77.0447 108.828 80.8498 108.828C81.9218 108.746 82.9937 108.987 83.9277 109.519C84.8617 110.051 85.6151 110.85 86.091 111.813L83.4494 113.216C83.2036 112.731 82.8271 112.324 82.3623 112.041C81.8974 111.758 81.3627 111.61 80.8184 111.614C79.9593 111.614 79.1355 111.955 78.5281 112.562C77.9206 113.169 77.5794 113.992 77.5794 114.85C77.5794 115.709 77.9206 116.532 78.5281 117.139C79.1355 117.745 79.9593 118.086 80.8184 118.086C81.3642 118.098 81.902 117.953 82.3682 117.669C82.8344 117.385 83.2096 116.974 83.4494 116.484L86.091 117.919C85.605 118.872 84.8486 119.66 83.9163 120.185C82.984 120.711 81.9173 120.95 80.8498 120.872C77.0447 120.851 74.3298 118.348 74.3298 114.85Z" fill="#291F1E"/>
<path d="M87.0339 114.848C87.0339 111.329 89.7488 108.826 93.47 108.826C97.1912 108.826 99.8851 111.329 99.8851 114.848C99.8851 118.367 97.1912 120.87 93.47 120.87C89.7488 120.87 87.0339 118.346 87.0339 114.848ZM96.4679 114.848C96.421 114.268 96.2056 113.713 95.8481 113.253C95.4906 112.792 95.0065 112.446 94.4551 112.257C93.9037 112.067 93.3089 112.042 92.7436 112.186C92.1783 112.329 91.6671 112.633 91.2725 113.062C90.8779 113.491 90.617 114.026 90.5219 114.601C90.4268 115.176 90.5016 115.766 90.737 116.299C90.9725 116.832 91.3584 117.285 91.8476 117.602C92.3367 117.919 92.9078 118.087 93.491 118.085C93.9046 118.088 94.3144 118.004 94.6936 117.839C95.0728 117.674 95.4129 117.431 95.6918 117.126C95.9707 116.82 96.182 116.46 96.3122 116.067C96.4423 115.675 96.4882 115.26 96.447 114.848H96.4679Z" fill="#291F1E"/>
<path d="M121.93 113.981V120.673H118.533V114.505C118.533 112.609 117.684 111.74 116.311 111.74C114.938 111.74 113.722 112.724 113.722 114.808V120.673H110.336V114.505C110.336 112.609 109.529 111.74 108.114 111.74C106.699 111.74 105.546 112.724 105.546 114.808V120.673H102.15V108.985H105.389V110.326C105.856 109.822 106.427 109.426 107.062 109.164C107.697 108.901 108.381 108.78 109.068 108.807C109.822 108.767 110.573 108.922 111.249 109.258C111.925 109.593 112.503 110.099 112.925 110.724C113.432 110.106 114.073 109.612 114.8 109.28C115.526 108.948 116.319 108.786 117.118 108.807C119.927 108.807 121.93 110.42 121.93 113.981Z" fill="#291F1E"/>
<path d="M340.386 210.968C340.426 210.367 340.693 209.804 341.133 209.392C341.574 208.981 342.154 208.752 342.757 208.752C343.359 208.752 343.94 208.981 344.38 209.392C344.82 209.804 345.087 210.367 345.127 210.968C345.149 211.292 345.104 211.618 344.995 211.924C344.885 212.23 344.714 212.51 344.492 212.748C344.27 212.985 344.001 213.174 343.702 213.304C343.404 213.433 343.082 213.5 342.757 213.5C342.431 213.5 342.109 213.433 341.811 213.304C341.512 213.174 341.244 212.985 341.021 212.748C340.799 212.51 340.628 212.23 340.519 211.924C340.409 211.618 340.364 211.292 340.386 210.968Z" fill="#291F1E"/>
<path d="M346.616 206.586C346.616 202.629 349.668 199.822 353.85 199.822C358.032 199.822 361.063 202.629 361.063 206.586C361.063 210.542 358.032 213.359 353.85 213.359C349.668 213.359 346.616 210.542 346.616 206.586ZM357.177 206.586C357.123 205.933 356.881 205.311 356.479 204.794C356.077 204.277 355.533 203.889 354.913 203.677C354.294 203.464 353.626 203.437 352.991 203.597C352.356 203.758 351.782 204.101 351.339 204.583C350.895 205.065 350.603 205.665 350.496 206.311C350.389 206.956 350.473 207.619 350.737 208.218C351.001 208.817 351.434 209.326 351.984 209.682C352.533 210.039 353.174 210.228 353.829 210.226C354.296 210.233 354.759 210.141 355.188 209.956C355.618 209.771 356.003 209.498 356.319 209.155C356.635 208.811 356.875 208.404 357.022 207.962C357.17 207.519 357.223 207.05 357.177 206.586Z" fill="#291F1E"/>
<path d="M371.718 199.823V203.347C371.434 203.315 371.148 203.297 370.863 203.294C368.751 203.294 367.367 204.444 367.367 206.956V213.16H363.513V200.023H367.156V201.754C367.7 201.084 368.401 200.557 369.196 200.221C369.992 199.884 370.858 199.747 371.718 199.823Z" fill="#291F1E"/>
<path d="M387.432 200.024V210.966C387.432 215.851 384.792 218.099 380.039 218.099C377.75 218.193 375.491 217.558 373.587 216.284L375.097 213.551C376.448 214.528 378.076 215.049 379.744 215.039C382.437 215.039 383.609 213.825 383.609 211.451V210.892C383.071 211.444 382.422 211.876 381.705 212.158C380.987 212.44 380.218 212.566 379.448 212.528C377.768 212.528 376.156 211.861 374.968 210.673C373.779 209.486 373.112 207.876 373.112 206.197C373.112 204.518 373.779 202.908 374.968 201.72C376.156 200.533 377.768 199.866 379.448 199.866C380.27 199.819 381.091 199.964 381.846 200.29C382.602 200.616 383.27 201.114 383.799 201.744V200.067L387.432 200.024ZM383.662 206.176C383.708 205.482 383.545 204.791 383.193 204.192C382.841 203.592 382.316 203.113 381.687 202.816C381.059 202.518 380.355 202.417 379.668 202.525C378.981 202.633 378.342 202.945 377.835 203.42C377.328 203.896 376.976 204.513 376.825 205.191C376.673 205.87 376.73 206.578 376.987 207.224C377.245 207.869 377.69 208.423 378.267 208.812C378.843 209.201 379.523 209.407 380.219 209.404C380.663 209.443 381.11 209.388 381.531 209.242C381.952 209.097 382.338 208.864 382.663 208.559C382.987 208.254 383.244 207.885 383.417 207.474C383.589 207.063 383.672 206.621 383.662 206.176Z" fill="#291F1E"/>
<path d="M280 41.9945C280 37.9026 282.958 35 287.01 35C291.063 35 294 37.9026 294 41.9945C294 46.0865 291.063 49 287.01 49C282.958 49 280 46.0865 280 41.9945ZM290.234 41.9945C290.182 41.32 289.947 40.6762 289.558 40.1418C289.168 39.6075 288.641 39.2058 288.04 38.986C287.44 38.7662 286.793 38.7378 286.177 38.9042C285.562 39.0707 285.006 39.4247 284.576 39.9231C284.147 40.4215 283.863 41.0425 283.759 41.7103C283.656 42.378 283.737 43.0634 283.993 43.6827C284.249 44.302 284.669 44.8282 285.201 45.197C285.733 45.5658 286.355 45.7611 286.99 45.7592C287.442 45.7661 287.891 45.671 288.307 45.4801C288.723 45.2892 289.096 45.0068 289.402 44.6514C289.709 44.296 289.941 43.8756 290.084 43.4177C290.228 42.9598 290.279 42.4748 290.234 41.9945Z" fill="#291F1E"/>
<path d="M267 47C267 46.4696 267.211 45.9609 267.586 45.5858C267.961 45.2107 268.47 45 269 45C269.53 45 270.039 45.2107 270.414 45.5858C270.789 45.9609 271 46.4696 271 47C271 47.5304 270.789 48.0391 270.414 48.4142C270.039 48.7893 269.53 49 269 49C268.47 49 267.961 48.7893 267.586 48.4142C267.211 48.0391 267 47.5304 267 47Z" fill="#291F1E"/>
<path d="M273.049 33.8857C273.055 33.6252 273.112 33.3687 273.216 33.1316C273.319 32.8946 273.468 32.682 273.653 32.5066C273.837 32.3312 274.054 32.1967 274.29 32.1112C274.526 32.0258 274.776 31.9911 275.025 32.0093C275.27 31.9837 275.518 32.0112 275.753 32.0901C275.988 32.169 276.205 32.2975 276.39 32.4678C276.576 32.638 276.726 32.8463 276.83 33.0796C276.935 33.3129 276.993 33.5662 277 33.8238C277.008 34.3775 276.804 34.9118 276.435 35.3091C276.252 35.5059 276.034 35.6631 275.793 35.7717C275.551 35.8804 275.292 35.9384 275.03 35.9425C274.499 35.9507 273.987 35.7386 273.607 35.3529C273.226 34.9672 273.008 34.4394 273 33.8857H273.049ZM273.444 37.3704H276.654V49H273.444V37.3704Z" fill="#291F1E"/>
</g>
<defs>
<linearGradient id="paint0_linear_426_2173" x1="334.546" y1="15.1523" x2="334.546" y2="155.898" gradientUnits="userSpaceOnUse">
<stop stop-color="#FFECE5"/>
<stop offset="1" stop-color="white"/>
</linearGradient>
<linearGradient id="paint1_linear_426_2173" x1="130.638" y1="8.00391" x2="130.638" y2="71.2288" gradientUnits="userSpaceOnUse">
<stop stop-color="#FFECE5"/>
<stop offset="1" stop-color="white"/>
</linearGradient>
<linearGradient id="paint2_linear_426_2173" x1="21.7778" y1="160.16" x2="21.7778" y2="261.591" gradientUnits="userSpaceOnUse">
<stop stop-color="#FFECE5"/>
<stop offset="1" stop-color="white"/>
</linearGradient>
<clipPath id="clip0_426_2173">
<rect width="449" height="278" fill="white"/>
</clipPath>
</defs>
</svg>
